<?xml version="1.0" encoding="UTF-8"?>
<svg version="1.1" xmlns="http://www.w3.org/2000/svg" width="512" height="512">
<path d="M0 0 C0.85183483 -0.0072672 1.70366966 -0.01453441 2.58131766 -0.02202183 C5.44942188 -0.04033911 8.31620012 -0.02288532 11.18429565 -0.00571251 C13.25570423 -0.01147103 15.3271077 -0.01941033 17.39850044 -0.02934873 C23.10127895 -0.05028209 28.80364079 -0.03987726 34.50642109 -0.02441764 C40.65239137 -0.01313464 46.7982885 -0.03055168 52.94424438 -0.04431725 C64.29180969 -0.06529882 75.63920457 -0.06343387 86.98676568 -0.0497599 C97.46914755 -0.03719025 107.95148055 -0.03389481 118.43386841 -0.03987312 C119.47618355 -0.04044601 119.47618355 -0.04044601 120.53955556 -0.04103047 C123.36017036 -0.04258712 126.18078514 -0.04417912 129.00139988 -0.04582929 C155.46982959 -0.06112996 181.93817437 -0.04724803 208.40659097 -0.02034481 C231.93068256 0.00338388 255.45463884 0.00126077 278.97872925 -0.02264977 C305.39823166 -0.04941341 331.817659 -0.06004492 358.23717308 -0.04458845 C361.05269748 -0.04298482 363.8682219 -0.04142062 366.68374634 -0.03987312 C367.72365422 -0.03928004 367.72365422 -0.03928004 368.78457035 -0.03867498 C379.26127751 -0.03298367 389.73793047 -0.03964632 400.21463013 -0.05227089 C412.125176 -0.06655156 424.03556201 -0.06254412 435.94610167 -0.03586717 C442.02669824 -0.02269827 448.10701971 -0.01762909 454.18761444 -0.03411293 C459.74900746 -0.0489616 465.30986917 -0.04090813 470.87121367 -0.01422517 C472.88795816 -0.00861862 474.90474712 -0.01152896 476.92146325 -0.02360411 C479.65416015 -0.0387169 482.38501551 -0.02331245 485.11761475 0 C485.90843185 -0.01170583 486.69924896 -0.02341166 487.51403022 -0.03547221 C491.34126993 0.03019716 493.38550317 0.50800508 496.54705656 2.71904337 C499.06225714 6.35748702 499.18521361 8.41597577 499.18801308 12.82100868 C499.19528028 13.53777362 499.20254748 14.25453855 499.21003491 14.99302363 C499.22832461 17.4017424 499.21091282 19.80887671 499.19372559 22.21758461 C499.19948525 23.95901047 499.20742532 25.70043027 499.21736181 27.44183731 C499.23827977 32.23251644 499.22789752 37.02269907 499.21243072 41.81338024 C499.20114136 46.97775172 499.21856791 52.1420364 499.23233032 57.30639076 C499.25459308 67.42546239 499.249748 77.54434886 499.23526712 87.66342783 C499.22398683 95.88553611 499.22243873 104.1075924 499.2278862 112.32970619 C499.22903545 114.08332826 499.22903545 114.08332826 499.23020791 115.87237704 C499.2318065 118.24715473 499.23342756 120.6219324 499.23507087 122.99671006 C499.24933728 145.27831846 499.23292164 167.5598241 499.20606904 189.84141564 C499.18372948 208.97060027 499.18760936 228.09963319 499.21066284 247.22881508 C499.23740508 269.42930475 499.2479639 291.6297043 499.23260152 313.83020782 C499.23100873 316.19637361 499.22943688 318.5625394 499.2278862 320.92870522 C499.22672913 322.67511927 499.22672913 322.67511927 499.22554869 324.45681441 C499.22122697 332.67146566 499.22852843 340.88605987 499.24028397 349.10070229 C499.25428998 359.10817999 499.25054897 369.11546154 499.22388025 379.1229167 C499.21071654 384.2314029 499.20563317 389.33956177 499.22212601 394.44804573 C499.23698571 399.12127232 499.22890339 403.79386705 499.20223825 408.46703601 C499.19663633 410.16076682 499.19953188 411.85455062 499.21161719 413.54824758 C499.22675562 415.84539866 499.21130248 418.14036689 499.18801308 420.43740273 C499.18679543 422.35339303 499.18679543 422.35339303 499.18555319 424.30809021 C498.39324623 428.50651138 496.84537498 429.99001699 493.55880737 432.6292057 C491.28812695 433.26006222 491.28812695 433.26006222 488.93336487 433.26844215 C488.03459122 433.28372963 487.13581757 433.29901711 486.20980835 433.31476784 C485.23660645 433.3061422 484.26340454 433.29751656 483.26071167 433.28862953 C482.22610306 433.29911324 481.19149445 433.30959694 480.12553406 433.32039833 C476.71106026 433.34916408 473.29759947 433.34285463 469.88302612 433.33623695 C467.51361316 433.34935098 465.14421138 433.36465428 462.77482605 433.3820591 C456.54246133 433.42195599 450.31038875 433.43210264 444.07791138 433.43609047 C437.71663525 433.44541295 431.35553141 433.48282103 424.99435425 433.51787758 C412.5158467 433.58250142 400.03746761 433.61570226 387.55880737 433.6292057 C387.96719849 434.32481606 388.3755896 435.02042641 388.7963562 435.73711586 C390.6566583 438.90831947 392.51400782 442.08124272 394.37130737 445.2542057 C395.01390503 446.34861977 395.65650269 447.44303383 396.318573 448.57061195 C396.94054565 449.63408852 397.56251831 450.69756508 398.20333862 451.7932682 C398.77415161 452.76731606 399.3449646 453.74136391 399.93307495 454.74492836 C405.25384745 464.18472508 405.25384745 464.18472508 404.55880737 469.6292057 C402.60552656 473.57749914 400.74588963 475.50053162 396.92990112 477.6526432 C395.99017456 478.19122963 395.050448 478.72981606 394.08224487 479.28472328 C392.55470581 480.13586708 392.55470581 480.13586708 390.99630737 481.0042057 C389.93798706 481.60708412 388.87966675 482.20996254 387.78927612 482.83111 C385.53779992 484.11358599 383.28364775 485.39137367 381.02706909 486.66485023 C376.46222737 489.25028713 371.92457523 491.8814208 367.38693237 494.51421547 C364.10718897 496.4136854 360.82009573 498.2998642 357.53146362 500.1838932 C353.88837476 502.2740485 350.27013223 504.39492332 346.67990112 506.5745182 C345.60095581 507.21683388 345.60095581 507.21683388 344.50021362 507.87212563 C343.22895883 508.62995332 341.96599134 509.40200557 340.71505737 510.19292641 C336.09931255 512.90787447 331.77555908 513.67785474 326.55880737 512.6292057 C321.19769576 508.94245886 318.33683263 502.50692055 315.18380737 496.9417057 C314.57730347 495.88660805 313.97079956 494.83151039 313.34591675 493.74444008 C312.06109163 491.50818549 310.77958996 489.27001858 309.50119019 487.03008461 C306.98265848 482.62043823 304.44382383 478.22267033 301.90402222 473.82525063 C300.73868608 471.80680456 299.5747599 469.7875432 298.41281128 467.76714516 C297.26044204 465.76450175 296.08028353 463.77764428 294.87574673 461.80593777 C292.97822542 458.56283957 291.52446126 455.235986 290.06972599 451.77352619 C285.03437116 440.21184477 285.03437116 440.21184477 275.76206279 432.24979997 C268.21271795 430.24930981 260.49086902 430.54599888 252.74334586 430.83238304 C249.24177464 430.93494948 245.74120895 430.89674632 242.23858643 430.87630653 C236.18326995 430.85962295 230.13406166 430.92949781 224.08018303 431.05931473 C215.32310318 431.246523 206.5694255 431.29481525 197.81055541 431.30944612 C183.59146366 431.33645358 169.37533367 431.46662551 155.15768433 431.66607094 C141.36747502 431.85922943 127.57781643 432.01600362 113.78659058 432.11528969 C112.93582799 432.12143507 112.0850654 432.12758046 111.20852213 432.13391206 C101.9212749 432.20006036 92.63398371 432.25719313 83.34665012 432.30968189 C80.8841243 432.32373728 78.42159863 432.33781968 75.95907318 432.35194007 C74.33597802 432.3611712 72.71288196 432.37024669 71.08978505 432.379164 C60.76764493 432.43650384 50.44692139 432.53342083 40.12556541 432.67269671 C34.92463321 432.74219203 29.72357694 432.79490655 24.52239942 432.84222607 C21.07229835 432.87462287 17.62283972 432.91596868 14.17316246 432.97961044 C10.435789 433.04473351 6.69931287 433.07945402 2.96150208 433.10694313 C1.8689138 433.13398726 0.77632552 433.1610314 -0.34937149 433.18889505 C-1.35042748 433.19025718 -2.35148347 433.19161932 -3.38287449 433.19302273 C-4.67639988 433.2108286 -4.67639988 433.2108286 -5.99605709 433.22899419 C-9.69227181 432.32231765 -11.15754514 430.62271782 -13.44119263 427.6292057 C-14.06793845 424.30809021 -14.06793845 424.30809021 -14.07039833 420.43740273 C-14.07766553 419.72063779 -14.08493274 419.00387286 -14.09242016 418.26538777 C-14.11070986 415.856669 -14.09329808 413.44953469 -14.07611084 411.0408268 C-14.0818705 409.29940093 -14.08981058 407.55798114 -14.09974706 405.8165741 C-14.12066503 401.02589497 -14.11028278 396.23571234 -14.09481597 391.44503117 C-14.08352661 386.28065969 -14.10095316 381.11637501 -14.11471558 375.95202065 C-14.13697834 365.83294901 -14.13213325 355.71406254 -14.11765237 345.59498358 C-14.10637208 337.3728753 -14.10482399 329.15081901 -14.11027145 320.92870522 C-14.11103762 319.75962384 -14.11180378 318.59054246 -14.11259317 317.38603437 C-14.11419175 315.01125668 -14.11581282 312.636479 -14.11745612 310.26170135 C-14.13172253 287.98009295 -14.1153069 265.69858731 -14.08845429 243.41699576 C-14.06611473 224.28781114 -14.06999461 205.15877821 -14.0930481 186.02959633 C-14.11979033 163.82910666 -14.13034915 141.62870711 -14.11498678 119.42820358 C-14.11339399 117.0620378 -14.11182214 114.695872 -14.11027145 112.32970619 C-14.10950008 111.16543016 -14.1087287 110.00115412 -14.10793395 108.801597 C-14.10361222 100.58694575 -14.11091368 92.37235154 -14.12266922 84.15770912 C-14.13667524 74.15023142 -14.13293423 64.14294987 -14.1062655 54.13549471 C-14.0931018 49.02700851 -14.08801842 43.91884964 -14.10451126 38.81036568 C-14.11937096 34.13713909 -14.11128865 29.46454436 -14.0846235 24.7913754 C-14.07902159 23.09764459 -14.08191713 21.40386079 -14.09400244 19.71016383 C-14.10914088 17.41301274 -14.09368773 15.11804451 -14.07039833 12.82100868 C-14.06958657 11.54368181 -14.06877481 10.26635494 -14.06793845 8.9503212 C-12.56324994 0.97700226 -7.2254761 -0.10695292 0 0 Z " fill="#FEFEFE" transform="translate(13.441192626953125,-0.6292057037353516)"/>
<path d="M0 0 C0.85183483 -0.0072672 1.70366966 -0.01453441 2.58131766 -0.02202183 C5.44942188 -0.04033911 8.31620012 -0.02288532 11.18429565 -0.00571251 C13.25570423 -0.01147103 15.3271077 -0.01941033 17.39850044 -0.02934873 C23.10127895 -0.05028209 28.80364079 -0.03987726 34.50642109 -0.02441764 C40.65239137 -0.01313464 46.7982885 -0.03055168 52.94424438 -0.04431725 C64.29180969 -0.06529882 75.63920457 -0.06343387 86.98676568 -0.0497599 C97.46914755 -0.03719025 107.95148055 -0.03389481 118.43386841 -0.03987312 C119.47618355 -0.04044601 119.47618355 -0.04044601 120.53955556 -0.04103047 C123.36017036 -0.04258712 126.18078514 -0.04417912 129.00139988 -0.04582929 C155.46982959 -0.06112996 181.93817437 -0.04724803 208.40659097 -0.02034481 C231.93068256 0.00338388 255.45463884 0.00126077 278.97872925 -0.02264977 C305.39823166 -0.04941341 331.817659 -0.06004492 358.23717308 -0.04458845 C361.05269748 -0.04298482 363.8682219 -0.04142062 366.68374634 -0.03987312 C367.72365422 -0.03928004 367.72365422 -0.03928004 368.78457035 -0.03867498 C379.26127751 -0.03298367 389.73793047 -0.03964632 400.21463013 -0.05227089 C412.125176 -0.06655156 424.03556201 -0.06254412 435.94610167 -0.03586717 C442.02669824 -0.02269827 448.10701971 -0.01762909 454.18761444 -0.03411293 C459.74900746 -0.0489616 465.30986917 -0.04090813 470.87121367 -0.01422517 C472.88795816 -0.00861862 474.90474712 -0.01152896 476.92146325 -0.02360411 C479.65416015 -0.0387169 482.38501551 -0.02331245 485.11761475 0 C485.90843185 -0.01170583 486.69924896 -0.02341166 487.51403022 -0.03547221 C491.34126993 0.03019716 493.38550317 0.50800508 496.54705656 2.71904337 C499.06225714 6.35748702 499.18521361 8.41597577 499.18801308 12.82100868 C499.19528028 13.53777362 499.20254748 14.25453855 499.21003491 14.99302363 C499.22832461 17.4017424 499.21091282 19.80887671 499.19372559 22.21758461 C499.19948525 23.95901047 499.20742532 25.70043027 499.21736181 27.44183731 C499.23827977 32.23251644 499.22789752 37.02269907 499.21243072 41.81338024 C499.20114136 46.97775172 499.21856791 52.1420364 499.23233032 57.30639076 C499.25459308 67.42546239 499.249748 77.54434886 499.23526712 87.66342783 C499.22398683 95.88553611 499.22243873 104.1075924 499.2278862 112.32970619 C499.22903545 114.08332826 499.22903545 114.08332826 499.23020791 115.87237704 C499.2318065 118.24715473 499.23342756 120.6219324 499.23507087 122.99671006 C499.24933728 145.27831846 499.23292164 167.5598241 499.20606904 189.84141564 C499.18372948 208.97060027 499.18760936 228.09963319 499.21066284 247.22881508 C499.23740508 269.42930475 499.2479639 291.6297043 499.23260152 313.83020782 C499.23100873 316.19637361 499.22943688 318.5625394 499.2278862 320.92870522 C499.22672913 322.67511927 499.22672913 322.67511927 499.22554869 324.45681441 C499.22122697 332.67146566 499.22852843 340.88605987 499.24028397 349.10070229 C499.25428998 359.10817999 499.25054897 369.11546154 499.22388025 379.1229167 C499.21071654 384.2314029 499.20563317 389.33956177 499.22212601 394.44804573 C499.23698571 399.12127232 499.22890339 403.79386705 499.20223825 408.46703601 C499.19663633 410.16076682 499.19953188 411.85455062 499.21161719 413.54824758 C499.22675562 415.84539866 499.21130248 418.14036689 499.18801308 420.43740273 C499.18679543 422.35339303 499.18679543 422.35339303 499.18555319 424.30809021 C498.39324623 428.50651138 496.84537498 429.99001699 493.55880737 432.6292057 C491.28812695 433.26006222 491.28812695 433.26006222 488.93336487 433.26844215 C488.03459122 433.28372963 487.13581757 433.29901711 486.20980835 433.31476784 C485.23660645 433.3061422 484.26340454 433.29751656 483.26071167 433.28862953 C482.22610306 433.29911324 481.19149445 433.30959694 480.12553406 433.32039833 C476.71106026 433.34916408 473.29759947 433.34285463 469.88302612 433.33623695 C467.51361316 433.34935098 465.14421138 433.36465428 462.77482605 433.3820591 C456.54246133 433.42195599 450.31038875 433.43210264 444.07791138 433.43609047 C437.71663525 433.44541295 431.35553141 433.48282103 424.99435425 433.51787758 C412.5158467 433.58250142 400.03746761 433.61570226 387.55880737 433.6292057 C387.96719849 434.32481606 388.3755896 435.02042641 388.7963562 435.73711586 C390.6566583 438.90831947 392.51400782 442.08124272 394.37130737 445.2542057 C395.01390503 446.34861977 395.65650269 447.44303383 396.318573 448.57061195 C396.94054565 449.63408852 397.56251831 450.69756508 398.20333862 451.7932682 C398.77415161 452.76731606 399.3449646 453.74136391 399.93307495 454.74492836 C405.25384745 464.18472508 405.25384745 464.18472508 404.55880737 469.6292057 C402.60552656 473.57749914 400.74588963 475.50053162 396.92990112 477.6526432 C395.99017456 478.19122963 395.050448 478.72981606 394.08224487 479.28472328 C392.55470581 480.13586708 392.55470581 480.13586708 390.99630737 481.0042057 C389.93798706 481.60708412 388.87966675 482.20996254 387.78927612 482.83111 C385.53779992 484.11358599 383.28364775 485.39137367 381.02706909 486.66485023 C376.46222737 489.25028713 371.92457523 491.8814208 367.38693237 494.51421547 C364.10718897 496.4136854 360.82009573 498.2998642 357.53146362 500.1838932 C353.88837476 502.2740485 350.27013223 504.39492332 346.67990112 506.5745182 C345.60095581 507.21683388 345.60095581 507.21683388 344.50021362 507.87212563 C343.22895883 508.62995332 341.96599134 509.40200557 340.71505737 510.19292641 C336.09931255 512.90787447 331.77555908 513.67785474 326.55880737 512.6292057 C321.19769576 508.94245886 318.33683263 502.50692055 315.18380737 496.9417057 C314.57730347 495.88660805 313.97079956 494.83151039 313.34591675 493.74444008 C312.06109163 491.50818549 310.77958996 489.27001858 309.50119019 487.03008461 C306.98265848 482.62043823 304.44382383 478.22267033 301.90402222 473.82525063 C300.73868608 471.80680456 299.5747599 469.7875432 298.41281128 467.76714516 C297.26044204 465.76450175 296.08028353 463.77764428 294.87574673 461.80593777 C292.97822542 458.56283957 291.52446126 455.235986 290.06972599 451.77352619 C285.03437116 440.21184477 285.03437116 440.21184477 275.76206279 432.24979997 C268.21271795 430.24930981 260.49086902 430.54599888 252.74334586 430.83238304 C249.24177464 430.93494948 245.74120895 430.89674632 242.23858643 430.87630653 C236.18326995 430.85962295 230.13406166 430.92949781 224.08018303 431.05931473 C215.32310318 431.246523 206.5694255 431.29481525 197.81055541 431.30944612 C183.59146366 431.33645358 169.37533367 431.46662551 155.15768433 431.66607094 C141.36747502 431.85922943 127.57781643 432.01600362 113.78659058 432.11528969 C112.93582799 432.12143507 112.0850654 432.12758046 111.20852213 432.13391206 C101.9212749 432.20006036 92.63398371 432.25719313 83.34665012 432.30968189 C80.8841243 432.32373728 78.42159863 432.33781968 75.95907318 432.35194007 C74.33597802 432.3611712 72.71288196 432.37024669 71.08978505 432.379164 C60.76764493 432.43650384 50.44692139 432.53342083 40.12556541 432.67269671 C34.92463321 432.74219203 29.72357694 432.79490655 24.52239942 432.84222607 C21.07229835 432.87462287 17.62283972 432.91596868 14.17316246 432.97961044 C10.435789 433.04473351 6.69931287 433.07945402 2.96150208 433.10694313 C1.8689138 433.13398726 0.77632552 433.1610314 -0.34937149 433.18889505 C-1.35042748 433.19025718 -2.35148347 433.19161932 -3.38287449 433.19302273 C-4.67639988 433.2108286 -4.67639988 433.2108286 -5.99605709 433.22899419 C-9.69227181 432.32231765 -11.15754514 430.62271782 -13.44119263 427.6292057 C-14.06793845 424.30809021 -14.06793845 424.30809021 -14.07039833 420.43740273 C-14.07766553 419.72063779 -14.08493274 419.00387286 -14.09242016 418.26538777 C-14.11070986 415.856669 -14.09329808 413.44953469 -14.07611084 411.0408268 C-14.0818705 409.29940093 -14.08981058 407.55798114 -14.09974706 405.8165741 C-14.12066503 401.02589497 -14.11028278 396.23571234 -14.09481597 391.44503117 C-14.08352661 386.28065969 -14.10095316 381.11637501 -14.11471558 375.95202065 C-14.13697834 365.83294901 -14.13213325 355.71406254 -14.11765237 345.59498358 C-14.10637208 337.3728753 -14.10482399 329.15081901 -14.11027145 320.92870522 C-14.11103762 319.75962384 -14.11180378 318.59054246 -14.11259317 317.38603437 C-14.11419175 315.01125668 -14.11581282 312.636479 -14.11745612 310.26170135 C-14.13172253 287.98009295 -14.1153069 265.69858731 -14.08845429 243.41699576 C-14.06611473 224.28781114 -14.06999461 205.15877821 -14.0930481 186.02959633 C-14.11979033 163.82910666 -14.13034915 141.62870711 -14.11498678 119.42820358 C-14.11339399 117.0620378 -14.11182214 114.695872 -14.11027145 112.32970619 C-14.10950008 111.16543016 -14.1087287 110.00115412 -14.10793395 108.801597 C-14.10361222 100.58694575 -14.11091368 92.37235154 -14.12266922 84.15770912 C-14.13667524 74.15023142 -14.13293423 64.14294987 -14.1062655 54.13549471 C-14.0931018 49.02700851 -14.08801842 43.91884964 -14.10451126 38.81036568 C-14.11937096 34.13713909 -14.11128865 29.46454436 -14.0846235 24.7913754 C-14.07902159 23.09764459 -14.08191713 21.40386079 -14.09400244 19.71016383 C-14.10914088 17.41301274 -14.09368773 15.11804451 -14.07039833 12.82100868 C-14.06958657 11.54368181 -14.06877481 10.26635494 -14.06793845 8.9503212 C-12.56324994 0.97700226 -7.2254761 -0.10695292 0 0 Z M6.55880737 100.6292057 C6.55880737 203.5892057 6.55880737 306.5492057 6.55880737 412.6292057 C81.13880737 412.6292057 155.71880737 412.6292057 232.55880737 412.6292057 C232.55880737 386.8892057 232.55880737 361.1492057 232.55880737 334.6292057 C220.04458862 334.60342445 207.53036987 334.5776432 194.63693237 334.5510807 C186.72545822 334.52592474 178.81400865 334.49976548 170.90255737 334.46904945 C158.33550161 334.42044594 145.76852765 334.3760274 133.2013855 334.35820961 C124.04980255 334.34521559 114.89838523 334.31830863 105.74689555 334.27459264 C100.89982077 334.2519271 96.05295066 334.23629806 91.20581818 334.23732185 C86.64538503 334.23806547 82.08540517 334.22023545 77.52508926 334.18803787 C75.84973084 334.17950531 74.17432178 334.1778116 72.49895096 334.18340302 C70.21394644 334.19001438 67.93039632 334.17219374 65.64553833 334.14818764 C64.36608967 334.14450047 63.08664101 334.14081329 61.76842117 334.13701439 C57.988633 333.53899563 56.83019265 332.65158303 54.55880737 329.6292057 C53.50629982 326.47168305 53.42271251 324.22763386 53.40490723 320.91121864 C53.39630676 319.71951057 53.3877063 318.52780251 53.37884521 317.29998207 C53.37458527 315.99081825 53.37032532 314.68165443 53.36593628 313.33281898 C53.35803353 311.94149001 53.34976447 310.55016306 53.34115601 309.15883827 C53.31496165 304.58908476 53.29963362 300.01932219 53.28536987 295.4495182 C53.28000963 293.87615262 53.27463212 292.30278709 53.26923752 290.72942162 C53.24761496 284.18574568 53.2288773 277.6420722 53.21761513 271.0983696 C53.20136776 261.72005931 53.1681642 252.34216276 53.11121428 242.96400845 C53.07253222 236.36944448 53.05298468 229.77499126 53.04769456 223.18031681 C53.04403944 219.24135018 53.0320014 215.30282511 52.99959183 211.36398125 C52.96954017 207.65873929 52.96318837 203.95420673 52.97497559 200.24886894 C52.97530185 198.24234064 52.95081827 196.2358563 52.92559814 194.22948647 C52.95962548 189.33165069 53.00356323 185.71212998 55.25579834 181.31946754 C60.66080352 178.55354293 66.00911236 178.96119795 71.990448 179.02984047 C73.3722223 179.02797566 74.75399511 179.02393739 76.13575745 179.01789284 C79.88183458 179.00792482 83.62715406 179.02907697 87.37312126 179.05637288 C91.29588214 179.08022344 95.21862851 179.0772581 99.14144897 179.07767677 C105.72877813 179.0823036 112.31581809 179.10593617 118.90304565 179.14214516 C126.51536829 179.18387798 134.12743054 179.20146011 141.73986101 179.2047649 C149.84890047 179.20836696 157.95784645 179.22724569 166.06684685 179.25188518 C168.40135105 179.25810874 170.73584812 179.26174825 173.07035828 179.26491928 C176.74103722 179.27082866 180.41153091 179.28716608 184.08213234 179.31152344 C186.06946448 179.32249078 188.05684257 179.32380147 190.04420471 179.32482338 C191.23024796 179.33479851 192.4162912 179.34477364 193.63827515 179.35505104 C195.18129429 179.3620268 195.18129429 179.3620268 196.75548553 179.36914349 C199.75834708 179.64771686 201.88503316 180.24147231 204.55880737 181.6292057 C206.73121343 184.8878148 206.79444895 185.44971373 206.37130737 189.1292057 C206.25722534 190.28936195 206.25722534 190.28936195 206.14083862 191.4729557 C205.44913464 194.03551008 204.63359778 195.0050261 202.55880737 196.6292057 C199.5507796 197.63188163 197.52163452 197.7656916 194.37663269 197.78742409 C193.30391113 197.79721291 192.23118958 197.80700172 191.1259613 197.81708717 C189.94920334 197.82284264 188.77244537 197.8285981 187.56002808 197.83452797 C186.32088654 197.84442757 185.081745 197.85432716 183.80505371 197.86452675 C180.40658454 197.89072225 177.00813897 197.9125811 173.60963082 197.93252873 C170.05817399 197.95439394 166.50675989 197.98178002 162.95533752 198.00858498 C156.22996862 198.05850463 149.50457599 198.10344615 142.77916068 198.14660734 C133.69127586 198.20521695 124.60344724 198.27149992 115.5156126 198.33735752 C101.19671539 198.44092083 86.87776999 198.53421753 72.55880737 198.6292057 C72.55880737 236.9092057 72.55880737 275.1892057 72.55880737 314.6292057 C125.35880737 314.6292057 178.15880737 314.6292057 232.55880737 314.6292057 C232.88880737 300.7692057 233.21880737 286.9092057 233.55880737 272.6292057 C238.55880737 267.6292057 238.55880737 267.6292057 242.41036987 267.06279945 C246.88780508 267.37126358 250.23594752 269.28367861 253.93380737 271.6917057 C255.43125241 272.61821287 256.9300409 273.54255093 258.42990112 274.4651432 C259.24571655 274.97271156 260.06153198 275.48027992 260.90206909 276.00322914 C265.87251563 279.04524108 270.94128063 281.91827447 275.99630737 284.8167057 C278.22699441 286.10148303 280.45745989 287.38664509 282.68771362 288.67217445 C283.81451538 289.32105629 284.94131714 289.96993813 286.1022644 290.63848305 C290.75673324 293.31912571 295.41012393 296.00163451 300.06295776 298.68511391 C302.2351308 299.93788524 304.40748051 301.1903503 306.58004761 302.44243813 C307.58108521 303.01969643 308.5821228 303.59695473 309.61349487 304.1917057 C310.55110153 304.71923439 311.48870819 305.24676308 312.45472717 305.79027748 C315.55880737 307.6292057 315.55880737 307.6292057 318.06951904 309.47211647 C327.48918304 316.0348302 336.30997227 315.54102667 347.32443237 315.31279945 C349.00003424 315.30248321 350.67565881 315.29535693 352.35128784 315.29143715 C358.50414259 315.25501724 364.65651165 315.15728842 370.80880737 315.0667057 C384.58630737 314.9223307 398.36380737 314.7779557 412.55880737 314.6292057 C412.55880737 276.3492057 412.55880737 238.0692057 412.55880737 198.6292057 C403.29302612 198.60342445 394.02724487 198.5776432 384.48068237 198.5510807 C378.61998398 198.52592226 372.75931869 198.49976086 366.89865112 198.46904945 C357.5908733 198.42046177 348.28320563 198.37603703 338.97531128 198.35820961 C332.19689536 198.34520806 325.41870274 198.31828204 318.64041257 198.27459264 C315.05087628 198.25194372 311.46161574 198.23629705 307.87200165 198.23732185 C303.86591946 198.23820478 299.86065299 198.20800243 295.85470581 198.17510414 C294.66284164 198.18013451 293.47097748 198.18516487 292.24299622 198.19034767 C291.15207169 198.17643486 290.06114716 198.16252205 288.93716431 198.14818764 C287.98956112 198.14450047 287.04195793 198.14081329 286.0656395 198.13701439 C282.81533752 197.4786011 281.62451589 196.1665788 279.55880737 193.6292057 C278.77365112 191.44561195 278.77365112 191.44561195 278.49630737 189.1917057 C278.38158081 188.45049477 278.26685425 187.70928383 278.14865112 186.94561195 C278.63523917 184.19754801 279.61523156 182.61933178 281.63723755 180.70101166 C286.17514841 178.16987289 291.94833919 178.97197663 296.990448 179.02984047 C298.3722223 179.02797566 299.75399511 179.02393739 301.13575745 179.01789284 C304.88183458 179.00792482 308.62715406 179.02907697 312.37312126 179.05637288 C316.29588214 179.08022344 320.21862851 179.0772581 324.14144897 179.07767677 C330.72877813 179.0823036 337.31581809 179.10593617 343.90304565 179.14214516 C351.51536829 179.18387798 359.12743054 179.20146011 366.73986101 179.2047649 C374.84890047 179.20836696 382.95784645 179.22724569 391.06684685 179.25188518 C393.40135105 179.25810874 395.73584812 179.26174825 398.07035828 179.26491928 C401.74103722 179.27082866 405.41153091 179.28716608 409.08213234 179.31152344 C411.06946448 179.32249078 413.05684257 179.32380147 415.04420471 179.32482338 C416.23024796 179.33479851 417.4162912 179.34477364 418.63827515 179.35505104 C420.18129429 179.3620268 420.18129429 179.3620268 421.75548553 179.36914349 C424.75834708 179.64771686 426.88503316 180.24147231 429.55880737 181.6292057 C431.8487991 185.0641933 431.809839 186.30647302 431.81277466 190.34719276 C431.81841431 191.53890083 431.82405396 192.7306089 431.8298645 193.95842934 C431.82379181 195.92217506 431.82379181 195.92217506 431.81759644 197.92559242 C431.82030624 199.31692119 431.82386712 200.70824853 431.82821655 202.09957314 C431.83734578 205.88063804 431.83379368 209.66159397 431.82745838 213.44266081 C431.82239913 217.39881722 431.82708981 221.35496422 431.83023071 225.31112099 C431.83387143 231.9573681 431.8290694 238.6035708 431.81954956 245.24981117 C431.80867374 252.93137804 431.81218379 260.61283868 431.82320237 268.29440296 C431.83228293 274.88897608 431.83355649 281.48351724 431.82832503 288.0780946 C431.82520841 292.01689083 431.82478736 295.95563715 431.83139801 299.89443016 C431.8371817 303.59951806 431.83315587 307.3044693 431.8216095 311.00954247 C431.81770923 313.01600139 431.82364049 315.02247188 431.8298645 317.02892494 C431.82422485 318.22627266 431.81858521 319.42362038 431.81277466 320.65725136 C431.81164358 322.21522847 431.81164358 322.21522847 431.81048965 323.80467987 C431.54339159 326.80221065 430.92185193 328.95241827 429.55880737 331.6292057 C425.90297616 333.73919652 422.55512176 333.89633223 418.39157104 333.94805336 C416.56023872 333.97785789 416.56023872 333.97785789 414.69190979 334.00826454 C413.38341568 334.01981575 412.07492157 334.03136696 410.72677612 334.0432682 C409.36627543 334.06199118 408.00578621 334.08156543 406.64530945 334.10195351 C403.07634258 334.15316173 399.50733811 334.19284758 395.9382019 334.23009682 C392.29146103 334.27020772 388.64487504 334.32126762 384.9982605 334.3713932 C377.85188969 334.46801831 370.70542162 334.55246572 363.55880737 334.6292057 C367.14496808 337.34396288 370.85104832 339.79426412 374.63302612 342.22686195 C376.55880737 343.6292057 376.55880737 343.6292057 377.55880737 345.6292057 C377.79614892 349.90135355 377.9537836 353.02291046 375.55880737 356.6292057 C373.25216675 358.2607975 373.25216675 358.2607975 370.40255737 359.82842445 C369.38033081 360.39754555 368.35810425 360.96666664 367.30490112 361.55303383 C366.23369019 362.13504555 365.16247925 362.71705727 364.05880737 363.3167057 C362.45199097 364.20712563 362.45199097 364.20712563 360.81271362 365.11553383 C353.51109532 369.15306173 353.51109532 369.15306173 350.55880737 370.6292057 C352.04354275 374.62742568 353.93079191 378.22364827 356.04318237 381.9260807 C356.38125916 382.51915016 356.71933594 383.11221962 357.06765747 383.72326088 C357.78219489 384.97471826 358.49835186 386.22525218 359.21603394 387.47490883 C360.29604643 389.35696814 361.36918299 391.24282178 362.44161987 393.1292057 C363.14172706 394.35340069 363.84223572 395.57736618 364.54318237 396.8010807 C365.16934448 397.8951725 365.79550659 398.9892643 366.44064331 400.11651039 C369.00802392 404.37417202 371.8009305 408.49239039 374.55880737 412.6292057 C408.87880737 412.6292057 443.19880737 412.6292057 478.55880737 412.6292057 C478.55880737 309.6692057 478.55880737 206.7092057 478.55880737 100.6292057 C322.79880737 100.6292057 167.03880737 100.6292057 6.55880737 100.6292057 Z " fill="#000000" transform="translate(13.441192626953125,-0.6292057037353516)"/>
<path d="M0 0 C4.46083326 0.78194907 6.80900392 2.39232802 9.5 6.125 C9.5 7.445 9.5 8.765 9.5 10.125 C17.75 10.125 26 10.125 34.5 10.125 C35.49 12.435 36.48 14.745 37.5 17.125 C40.82601412 19.34234274 41.88064794 19.38086384 45.75810242 19.4034729 C47.39242722 19.42021812 47.39242722 19.42021812 49.05976868 19.43730164 C50.85295784 19.44054192 50.85295784 19.44054192 52.68237305 19.44384766 C53.94102173 19.45389328 55.19967041 19.4639389 56.49645996 19.47428894 C59.94863858 19.50161775 63.40077632 19.5167468 66.85303473 19.52971697 C70.46056803 19.54533496 74.0680177 19.5721294 77.67549133 19.5977478 C84.5071001 19.64455924 91.33872456 19.68129186 98.17041188 19.71442068 C107.40182594 19.75976743 116.63313662 19.82064844 125.86446476 19.88066864 C140.40959139 19.97482773 154.95474737 20.04820139 169.5 20.125 C169.5 58.405 169.5 96.685 169.5 136.125 C149.32875 136.62 149.32875 136.62 128.75 137.125 C124.56731445 137.27066406 120.38462891 137.41632813 116.07519531 137.56640625 C93.38676484 138.02250307 77.93216683 135.78916354 59.37962341 122.17329407 C54.63186347 118.79618285 49.56507027 115.9927546 44.5 113.125 C42.57004349 111.99878176 40.64146784 110.87019081 38.71484375 109.73828125 C34.09622713 107.04377383 29.46106914 104.37970202 24.81640625 101.73046875 C24.16964935 101.36156525 23.52289246 100.99266174 22.85653687 100.61257935 C19.68012586 98.80190119 16.50207147 96.99416231 13.32226562 95.18945312 C12.18595703 94.54298828 11.04964844 93.89652344 9.87890625 93.23046875 C8.8638501 92.65449951 7.84879395 92.07853027 6.80297852 91.48510742 C4.5 90.125 4.5 90.125 3.5 89.125 C-0.5639852 88.62960594 -0.5639852 88.62960594 -4.5 89.125 C-14.42309842 97.89797286 -14.42309842 97.89797286 -10.5 136.125 C-63.3 136.125 -116.1 136.125 -170.5 136.125 C-170.5 97.845 -170.5 59.565 -170.5 20.125 C-161.39019531 20.07601562 -152.28039062 20.02703125 -142.89453125 19.9765625 C-137.1295477 19.94118468 -131.36457435 19.90531051 -125.59960938 19.8671875 C-116.44558007 19.80674566 -107.29156998 19.74835308 -98.13745117 19.703125 C-91.47078517 19.67017744 -84.80420216 19.63033096 -78.13762778 19.58220994 C-74.60793304 19.55697239 -71.07829315 19.53518305 -67.54853249 19.52165604 C-63.6075318 19.50642375 -59.66673253 19.47578872 -55.72583008 19.44384766 C-54.55626266 19.44168747 -53.38669525 19.43952728 -52.1816864 19.43730164 C-50.56848007 19.42055641 -50.56848007 19.42055641 -48.92268372 19.4034729 C-47.99075101 19.39794214 -47.0588183 19.39241138 -46.09864521 19.38671303 C-43.05231493 19.07991304 -41.13741476 18.71974111 -38.5 17.125 C-37.51 14.815 -36.52 12.505 -35.5 10.125 C-27.25 10.125 -19 10.125 -10.5 10.125 C-10.17 8.475 -9.84 6.825 -9.5 5.125 C-6.72739272 1.13937703 -4.79134061 -0.28748044 0 0 Z " fill="#FE7C96" transform="translate(256.5,177.875)"/>
<path d="M0 0 C155.76 0 311.52 0 472 0 C472 19.8 472 39.6 472 60 C316.24 60 160.48 60 0 60 C0 40.2 0 20.4 0 0 Z " fill="#97E9F8" transform="translate(20,20)"/>
<path d="M0 0 C4.95950244 1.65316748 8.86322334 3.51456707 13.25 6.1875 C14.76618915 7.09498405 16.28316888 8.00114806 17.80078125 8.90625 C19.04335693 9.64875 19.04335693 9.64875 20.31103516 10.40625 C25.32668063 13.37902407 30.38425452 16.27926569 35.4375 19.1875 C36.53884277 19.82236328 37.64018555 20.45722656 38.77490234 21.11132812 C44.42936974 24.37041535 50.08664147 27.62457776 55.74609375 30.875 C66.06667818 36.80637036 76.37774764 42.75511587 86.625 48.8125 C87.47884277 49.31031982 88.33268555 49.80813965 89.21240234 50.32104492 C89.9802002 50.77842041 90.74799805 51.2357959 91.5390625 51.70703125 C92.54767334 52.30221558 92.54767334 52.30221558 93.57666016 52.90942383 C94.0463623 53.26931396 94.51606445 53.6292041 95 54 C95 54.66 95 55.32 95 56 C93.47119141 57.09741211 93.47119141 57.09741211 91.3515625 58.27734375 C90.21460938 58.92413086 90.21460938 58.92413086 89.0546875 59.58398438 C88.25289063 60.03064453 87.45109375 60.47730469 86.625 60.9375 C85.05107509 61.81516754 83.48059314 62.6990454 81.9140625 63.58984375 C81.2123291 63.98034912 80.5105957 64.37085449 79.78759766 64.77319336 C77.70497107 66.03937528 77.70497107 66.03937528 76 69 C75.20149506 75.99068475 77.10436809 80.05859484 80.625 86 C81.11718018 86.86173828 81.60936035 87.72347656 82.11645508 88.61132812 C83.72637967 91.4183504 85.36131231 94.20968566 87 97 C88.09577026 98.88499936 89.19081689 100.77041956 90.28515625 102.65625 C92.59666179 106.63151677 94.91905268 110.60021738 97.24609375 114.56640625 C101.64899639 122.08808019 105.96365288 129.6595433 110.27255249 137.23532104 C113.55020085 142.99773563 116.83315553 148.75456449 120.234375 154.4453125 C120.70842773 155.23881104 121.18248047 156.03230957 121.67089844 156.84985352 C122.52748179 158.27586654 123.38969826 159.6985184 124.25878906 161.11694336 C127 165.67423652 127 165.67423652 127 169 C126.30140869 169.40202637 125.60281738 169.80405273 124.88305664 170.21826172 C122.20712121 171.75873206 119.53171572 173.30011905 116.85647583 174.84179688 C115.06756382 175.8720836 113.27782908 176.90093035 111.48803711 177.9296875 C106.16258704 180.99441673 100.84737084 184.07069619 95.59375 187.2578125 C94.81636475 187.72719238 94.03897949 188.19657227 93.23803711 188.68017578 C91.81691699 189.54232092 90.40078739 190.41276147 88.99047852 191.29248047 C87.37116516 192.27204704 85.68974999 193.14766709 84 194 C80.35248225 192.78416075 80.14744257 191.99712003 78.35546875 188.71484375 C77.85104248 187.80452393 77.34661621 186.8942041 76.8269043 185.95629883 C76.28590088 184.96009521 75.74489746 183.9638916 75.1875 182.9375 C74.01198754 180.81423372 72.8348542 178.69186414 71.65625 176.5703125 C71.05039062 175.4762207 70.44453125 174.38212891 69.8203125 173.25488281 C67.01195372 168.2332842 64.10237569 163.2727856 61.1875 158.3125 C56.31127703 149.99488404 51.49914012 141.64353078 46.7288208 133.26495361 C44.40834716 129.19266586 42.07843129 125.12577578 39.74902344 121.05859375 C38.66301799 119.15944854 37.57980296 117.25870125 36.50097656 115.35546875 C35.2828664 113.20931702 34.05075119 111.07207099 32.8125 108.9375 C31.86310547 107.28041016 31.86310547 107.28041016 30.89453125 105.58984375 C28.76167086 102.67420161 27.36270464 101.32853599 24 100 C17.92780007 100.05048147 13.67653719 102.52506558 8.625 105.5625 C1.06980273 110 1.06980273 110 0 110 C0 73.7 0 37.4 0 0 Z " fill="#65DDF4" transform="translate(266,294)"/>
<path d="M0 0 C0.76408432 0.00086648 1.52816864 0.00173296 2.31540704 0.0026257 C3.121277 -0.00034542 3.92714696 -0.00331654 4.75743723 -0.0063777 C7.47893957 -0.01510346 10.20039813 -0.01657621 12.92191339 -0.01806521 C14.86466338 -0.02269071 16.80741245 -0.027715 18.75016046 -0.03311038 C24.04365622 -0.0462637 29.33713929 -0.05268522 34.63064885 -0.05712104 C37.93515913 -0.06004751 41.23966591 -0.06415153 44.54417443 -0.06862521 C54.87530836 -0.08230888 65.20643431 -0.09197084 75.53757668 -0.0958271 C87.47761362 -0.10030785 99.41753609 -0.11785293 111.35753822 -0.1468277 C120.57624628 -0.16842463 129.79492209 -0.17853035 139.01365519 -0.17986822 C144.52417304 -0.18091783 150.03458341 -0.18685847 155.5450747 -0.20468783 C160.72918098 -0.22113378 165.91309859 -0.22334093 171.09722161 -0.21454883 C173.00117012 -0.21377654 174.90512862 -0.21814628 176.80905175 -0.22800708 C179.40644853 -0.24067147 182.00317161 -0.23487989 184.60056329 -0.22442508 C185.35572472 -0.23248148 186.11088616 -0.24053789 186.88893127 -0.24883842 C191.34073046 -0.206872 194.18809416 0.37372477 197.71195245 3.1430676 C200.17123989 6.83199876 200.40500824 9.85948181 199.71195245 14.1430676 C197.58746975 17.58619474 196.56342603 18.85924307 192.71195245 20.1430676 C190.08871856 20.24732562 187.49160066 20.29524548 184.86798882 20.29696774 C183.65662061 20.30354113 183.65662061 20.30354113 182.4207803 20.3102473 C179.7054981 20.32363832 176.99024836 20.32981478 174.27494073 20.33593869 C172.33189521 20.34383925 170.38885115 20.35210817 168.44580865 20.36071897 C162.05797501 20.38693853 155.6701348 20.40224386 149.28226495 20.4165051 C147.08483525 20.4218643 144.88740559 20.4272418 142.68997598 20.43263745 C133.55220189 20.45426367 124.41442957 20.47300212 115.27663636 20.48425984 C102.17084492 20.5005115 89.06534936 20.53372188 75.95966947 20.59066069 C66.7494159 20.6293153 57.53924162 20.64888707 48.32890904 20.65418041 C42.82503818 20.65783923 37.32148291 20.6699174 31.81769967 20.70228314 C26.64168545 20.73228582 21.46617907 20.73870347 16.29009652 20.72689939 C14.38935734 20.72667802 12.48859511 20.73503534 10.58793664 20.75255322 C7.99463639 20.77515622 5.40319166 20.76699222 2.80988336 20.75106931 C1.67918756 20.77189244 1.67918756 20.77189244 0.52564943 20.79313624 C-3.43742046 20.73309569 -5.12043812 20.27912412 -8.23899245 17.74764562 C-10.82916357 14.45524866 -11.29732338 12.37893017 -11.56929755 8.2993176 C-11.28804755 6.1430676 -11.28804755 6.1430676 -8.91304755 3.1430676 C-8.04679755 2.4830676 -7.18054755 1.8230676 -6.28804755 1.1430676 C-4.55381735 -0.59116261 -2.31238347 0.01289855 0 0 Z " fill="#000000" transform="translate(257.28804755210876,39.856932401657104)"/>
<path d="M0 0 C4.21991975 0.32138462 6.62477605 0.71843517 10.171875 3.1796875 C12.62942904 6.82638059 12.72695581 8.73162183 12.109375 13.0546875 C10.75690611 16.25790328 9.82378782 17.64920996 6.796875 19.3671875 C3.62182807 20.17940881 1.37132147 20.53038803 -1.890625 20.0546875 C-5.73190805 16.81093737 -7.69842472 14.75245665 -8.265625 9.7421875 C-7.79849125 5.14870563 -6.37022282 3.94020765 -2.890625 1.0546875 C-1.890625 0.0546875 -1.890625 0.0546875 0 0 Z " fill="#050808" transform="translate(157.890625,39.9453125)"/>
<path d="M0 0 C4.21991975 0.32138462 6.62477605 0.71843517 10.171875 3.1796875 C12.62942904 6.82638059 12.72695581 8.73162183 12.109375 13.0546875 C10.75690611 16.25790328 9.82378782 17.64920996 6.796875 19.3671875 C3.62182807 20.17940881 1.37132147 20.53038803 -1.890625 20.0546875 C-5.73190805 16.81093737 -7.69842472 14.75245665 -8.265625 9.7421875 C-7.79849125 5.14870563 -6.37022282 3.94020765 -2.890625 1.0546875 C-1.890625 0.0546875 -1.890625 0.0546875 0 0 Z " fill="#050808" transform="translate(109.890625,39.9453125)"/>
<path d="M0 0 C4.21991975 0.32138462 6.62477605 0.71843517 10.171875 3.1796875 C12.62942904 6.82638059 12.72695581 8.73162183 12.109375 13.0546875 C10.75690611 16.25790328 9.82378782 17.64920996 6.796875 19.3671875 C3.62182807 20.17940881 1.37132147 20.53038803 -1.890625 20.0546875 C-5.73190805 16.81093737 -7.69842472 14.75245665 -8.265625 9.7421875 C-7.79849125 5.14870563 -6.37022282 3.94020765 -2.890625 1.0546875 C-1.890625 0.0546875 -1.890625 0.0546875 0 0 Z " fill="#050808" transform="translate(61.890625,39.9453125)"/>
<path d="M0 0 C4.15132171 0.31616026 6.66810634 0.77227556 10.234375 3.0546875 C12.5467856 6.75454446 12.51491886 8.75980585 11.73828125 12.96484375 C10.79141563 16.11126057 9.95175087 17.34926198 7.109375 19.0546875 C4.0350743 19.97985089 1.3124268 20.36871219 -1.890625 20.0546875 C-5.10480029 18.04582794 -6.42403929 16.50686998 -7.5859375 12.890625 C-8.03236952 10.46365822 -8.21004824 8.50359899 -7.890625 6.0546875 C-5.515625 3.0546875 -5.515625 3.0546875 -2.890625 1.0546875 C-1.890625 0.0546875 -1.890625 0.0546875 0 0 Z " fill="#080607" transform="translate(253.890625,177.9453125)"/>
</svg>
